<?xml version="1.0" encoding="UTF-8"?>
<svg xmlns="http://www.w3.org/2000/svg" version="1.1" width="300" height="300" viewBox="0 0 300 300"><rect x="0" y="0" width="300" height="300" fill="#ffffff"/><g transform="scale(10.345)"><g transform="translate(0,0)"><path fill-rule="evenodd" d="M12 0L12 1L13 1L13 0ZM14 0L14 4L17 4L17 5L18 5L18 8L17 8L17 6L16 6L16 5L15 5L15 6L14 6L14 5L12 5L12 4L13 4L13 3L8 3L8 4L9 4L9 5L8 5L8 7L9 7L9 8L6 8L6 9L10 9L10 11L11 11L11 10L12 10L12 9L10 9L10 8L13 8L13 6L14 6L14 7L15 7L15 6L16 6L16 8L14 8L14 10L13 10L13 11L12 11L12 12L9 12L9 11L8 11L8 12L6 12L6 13L5 13L5 12L4 12L4 10L5 10L5 8L0 8L0 10L1 10L1 11L0 11L0 14L1 14L1 13L3 13L3 15L1 15L1 17L0 17L0 21L1 21L1 18L5 18L5 19L2 19L2 20L5 20L5 21L7 21L7 20L8 20L8 19L9 19L9 21L8 21L8 23L9 23L9 21L11 21L11 22L10 22L10 23L11 23L11 26L12 26L12 25L13 25L13 27L10 27L10 25L9 25L9 24L8 24L8 29L9 29L9 27L10 27L10 28L12 28L12 29L18 29L18 28L22 28L22 27L23 27L23 26L24 26L24 27L26 27L26 26L24 26L24 25L28 25L28 26L27 26L27 28L24 28L24 29L27 29L27 28L28 28L28 26L29 26L29 25L28 25L28 24L29 24L29 23L27 23L27 22L29 22L29 20L28 20L28 19L27 19L27 16L28 16L28 15L27 15L27 12L28 12L28 11L27 11L27 12L25 12L25 9L26 9L26 8L25 8L25 9L24 9L24 8L23 8L23 9L22 9L22 8L20 8L20 9L18 9L18 8L19 8L19 5L20 5L20 3L21 3L21 0L19 0L19 1L17 1L17 0ZM8 1L8 2L9 2L9 1ZM10 1L10 2L11 2L11 1ZM19 1L19 2L16 2L16 3L18 3L18 4L19 4L19 2L20 2L20 1ZM10 4L10 6L9 6L9 7L10 7L10 6L11 6L11 7L12 7L12 5L11 5L11 4ZM20 6L20 7L21 7L21 6ZM27 8L27 9L28 9L28 10L29 10L29 9L28 9L28 8ZM1 9L1 10L2 10L2 9ZM20 9L20 10L19 10L19 11L18 11L18 10L17 10L17 12L16 12L16 11L15 11L15 10L14 10L14 11L13 11L13 13L12 13L12 14L11 14L11 13L9 13L9 14L8 14L8 13L6 13L6 14L5 14L5 13L4 13L4 12L3 12L3 13L4 13L4 14L5 14L5 15L4 15L4 17L5 17L5 16L7 16L7 15L8 15L8 16L9 16L9 17L10 17L10 18L9 18L9 19L10 19L10 20L11 20L11 19L12 19L12 20L13 20L13 21L12 21L12 22L11 22L11 23L12 23L12 24L14 24L14 26L16 26L16 27L17 27L17 28L18 28L18 27L20 27L20 23L19 23L19 22L18 22L18 21L19 21L19 20L21 20L21 19L22 19L22 18L21 18L21 17L20 17L20 16L21 16L21 14L22 14L22 17L23 17L23 18L24 18L24 19L25 19L25 21L26 21L26 20L27 20L27 19L25 19L25 18L24 18L24 17L26 17L26 16L27 16L27 15L26 15L26 13L25 13L25 12L24 12L24 9L23 9L23 12L22 12L22 13L20 13L20 12L21 12L21 11L22 11L22 10L21 10L21 9ZM6 10L6 11L7 11L7 10ZM1 11L1 12L2 12L2 11ZM14 11L14 13L13 13L13 14L12 14L12 15L11 15L11 14L10 14L10 15L11 15L11 16L12 16L12 17L11 17L11 18L12 18L12 19L13 19L13 18L12 18L12 17L13 17L13 16L12 16L12 15L16 15L16 16L14 16L14 18L15 18L15 19L16 19L16 20L17 20L17 21L18 21L18 20L17 20L17 18L20 18L20 17L18 17L18 16L19 16L19 14L20 14L20 13L19 13L19 14L18 14L18 16L17 16L17 15L16 15L16 14L17 14L17 13L18 13L18 12L17 12L17 13L15 13L15 11ZM23 12L23 13L22 13L22 14L23 14L23 13L24 13L24 14L25 14L25 13L24 13L24 12ZM14 13L14 14L15 14L15 13ZM28 13L28 14L29 14L29 13ZM6 14L6 15L7 15L7 14ZM23 15L23 16L24 16L24 15ZM2 16L2 17L3 17L3 16ZM16 16L16 17L17 17L17 16ZM6 17L6 18L7 18L7 19L6 19L6 20L7 20L7 19L8 19L8 18L7 18L7 17ZM28 17L28 18L29 18L29 17ZM14 20L14 21L13 21L13 22L14 22L14 21L15 21L15 20ZM21 21L21 24L24 24L24 21ZM15 22L15 23L14 23L14 24L15 24L15 25L16 25L16 26L17 26L17 27L18 27L18 26L19 26L19 25L18 25L18 24L15 24L15 23L17 23L17 22ZM22 22L22 23L23 23L23 22ZM25 23L25 24L27 24L27 23ZM22 25L22 26L21 26L21 27L22 27L22 26L23 26L23 25ZM13 27L13 28L14 28L14 27ZM0 0L0 7L7 7L7 0ZM1 1L1 6L6 6L6 1ZM2 2L2 5L5 5L5 2ZM22 0L22 7L29 7L29 0ZM23 1L23 6L28 6L28 1ZM24 2L24 5L27 5L27 2ZM0 22L0 29L7 29L7 22ZM1 23L1 28L6 28L6 23ZM2 24L2 27L5 27L5 24Z" fill="#000000"/></g></g></svg>
